<svg width="32" height="32" viewBox="0 0 32 32" fill="none" xmlns="http://www.w3.org/2000/svg">
<circle cx="16" cy="16" r="16" fill="white"/>
<path d="M19.999 10.9233C19.5046 10.9233 19.0878 10.7537 18.7488 10.4147C18.4098 10.0615 18.2402 9.63775 18.2402 9.14333C18.2402 8.66303 18.4098 8.25336 18.7488 7.91432C19.0878 7.56116 19.5046 7.38458 19.999 7.38458C20.4793 7.38458 20.896 7.56116 21.2492 7.91432C21.6023 8.25336 21.7789 8.66303 21.7789 9.14333C21.7789 9.63775 21.6023 10.0615 21.2492 10.4147C20.896 10.7537 20.4793 10.9233 19.999 10.9233ZM18.7488 22.1538V19.8865V14.6738V12.4065H21.228V19.8865V22.1538H18.7488Z" fill="black"/>
<path d="M11.7207 22.1537C10.8166 22.1537 9.98314 21.9418 9.22031 21.518C8.47161 21.0801 7.8783 20.4868 7.44038 19.7381C7.01658 18.9894 6.80469 18.17 6.80469 17.2801C6.80469 16.3901 7.01658 15.5708 7.44038 14.8221C7.8783 14.0734 8.47161 13.4871 9.22031 13.0633C9.98314 12.6254 10.8166 12.4064 11.7207 12.4064H16.552V22.1537H11.7207ZM11.9538 19.9076H14.1575V14.6525H11.9538C11.4452 14.6525 10.9861 14.7656 10.5765 14.9916C10.1809 15.2176 9.87013 15.5354 9.64411 15.9451C9.41809 16.3407 9.30507 16.7856 9.30507 17.2801C9.30507 17.7745 9.41809 18.2195 9.64411 18.615C9.87013 19.0106 10.1809 19.3284 10.5765 19.5686C10.9861 19.7946 11.4452 19.9076 11.9538 19.9076Z" fill="black"/>
</svg>
