<svg xmlns="http://www.w3.org/2000/svg" width="25" height="25" viewBox="0 0 25 25" fill="none">
  <path d="M14.8672 0.911133C15.2814 0.911133 15.6172 1.24692 15.6172 1.66113V3.54395C15.6171 3.6262 15.6007 3.70425 15.5762 3.77832H18.4551L18.6094 3.78223C20.1946 3.86239 21.4549 5.17325 21.4551 6.77832V9.38184H23.3389C23.7527 9.38227 24.0889 9.71789 24.0889 10.1318C24.0887 10.5457 23.7526 10.8814 23.3389 10.8818H21.4561L21.4551 10.8809V12.2051H23.3389C23.7527 12.2055 24.0889 12.5411 24.0889 12.9551C24.0889 13.369 23.7527 13.7046 23.3389 13.7051H21.4561L21.4551 13.7041V15.0283H23.3389C23.7526 15.0287 24.0887 15.3645 24.0889 15.7783C24.0889 16.1923 23.7527 16.5279 23.3389 16.5283H21.4561L21.4551 16.5273V19.6016L21.4512 19.7559C21.3736 21.2901 20.1436 22.5201 18.6094 22.5977L18.4551 22.6016H15.6172V24.25C15.6168 24.6638 15.2811 25 14.8672 25C14.4534 24.9998 14.1176 24.6637 14.1172 24.25V22.6016H12.7939V24.25C12.7935 24.6638 12.4579 25 12.0439 25C11.63 25 11.2944 24.6638 11.2939 24.25V22.6016H9.9707V24.25C9.97027 24.6638 9.63453 24.9999 9.2207 25C8.80675 25 8.47113 24.6638 8.4707 24.25V22.6016H5.63184L5.47754 22.5977C3.94358 22.5197 2.71332 21.2899 2.63574 19.7559L2.63184 19.6016V16.5283H0.75C0.335786 16.5283 9.05293e-09 16.1925 0 15.7783C0.000160981 15.3642 0.335886 15.0283 0.75 15.0283H2.63184V13.7051H0.75C0.335786 13.7051 9.05293e-09 13.3693 0 12.9551C5.85806e-06 12.5409 0.33579 12.2051 0.75 12.2051H2.63184V10.8818H0.75C0.335879 10.8818 0.000149272 10.5459 0 10.1318C-9.05293e-09 9.71762 0.335786 9.38184 0.75 9.38184H2.63184V6.77832C2.63199 5.17347 3.89265 3.8627 5.47754 3.78223L5.63184 3.77832H8.51172C8.48719 3.70425 8.47077 3.6262 8.4707 3.54395V1.66113C8.4707 1.24692 8.80649 0.911133 9.2207 0.911133C9.63479 0.911282 9.9707 1.24701 9.9707 1.66113V3.54395C9.97064 3.62625 9.95327 3.70421 9.92871 3.77832H11.335C11.3104 3.70428 11.294 3.62617 11.2939 3.54395V1.66113C11.2939 1.24692 11.6297 0.911139 12.0439 0.911133C12.4582 0.911133 12.7939 1.24692 12.7939 1.66113V3.54395C12.7939 3.62617 12.7774 3.70427 12.7529 3.77832H14.1592C14.1346 3.70422 14.1173 3.62624 14.1172 3.54395V1.66113C14.1172 1.24702 14.4531 0.911294 14.8672 0.911133ZM5.63184 5.27832C4.80367 5.27851 4.132 5.95015 4.13184 6.77832V19.6016C4.13184 20.4299 4.80357 21.1014 5.63184 21.1016H18.4551C19.2835 21.1016 19.9551 20.43 19.9551 19.6016V6.77832C19.9549 5.95003 19.2834 5.27832 18.4551 5.27832H5.63184ZM13.9043 8.25293C15.4892 8.33341 16.7499 9.64411 16.75 11.249V14.6611L16.7461 14.8154C16.6682 16.3492 15.4381 17.5794 13.9043 17.6572L13.75 17.6611H10.3379L10.1836 17.6572C8.64974 17.5794 7.41968 16.3493 7.3418 14.8154L7.33789 14.6611V11.249C7.33798 9.64405 8.59858 8.33332 10.1836 8.25293L10.3379 8.24902H13.75L13.9043 8.25293ZM10.3379 9.74902C9.5096 9.74912 8.83798 10.4207 8.83789 11.249V14.6611C8.83808 15.4893 9.50966 16.161 10.3379 16.1611H13.75C14.5782 16.1609 15.2498 15.4893 15.25 14.6611V11.249C15.2499 10.4208 14.5782 9.74921 13.75 9.74902H10.3379Z" fill="black"/>
</svg>