<svg xmlns="http://www.w3.org/2000/svg" width="21" height="22" viewBox="0 0 21 22" fill="none">
  <path d="M15.8984 0.476318C18.5217 0.47638 20.6483 2.60308 20.6484 5.22632V12.1833C20.6484 14.8067 18.5217 16.9333 15.8984 16.9333H11.3408L6.79785 21.2341C6.12854 21.8675 5.02637 21.393 5.02637 20.4714V16.9333H4.75C2.12678 16.9332 0 14.8066 0 12.1833V5.22632C9.29224e-05 2.60314 2.12684 0.476474 4.75 0.476318H15.8984ZM4.75 1.97632C2.95526 1.97647 1.50009 3.43157 1.5 5.22632V12.1833C1.5 13.9782 2.95521 15.4332 4.75 15.4333H5.77637L5.85352 15.4373C6.23162 15.4757 6.5263 15.7951 6.52637 16.1833V19.4255L10.5264 15.6384C10.6713 15.5013 10.857 15.4344 11.042 15.4343V15.4333H15.8984C17.6933 15.4333 19.1484 13.9782 19.1484 12.1833V5.22632C19.1483 3.43151 17.6933 1.97638 15.8984 1.97632H4.75Z" fill="white"/>
</svg>