<svg xmlns="http://www.w3.org/2000/svg" width="84" height="83" viewBox="0 0 84 83" fill="none">
  <path d="M34.2068 23.5151L30.6868 23.5151C23.5071 23.5151 17.6868 29.3354 17.6868 36.5151L17.6868 59.3241C17.6868 66.5038 23.5071 72.3241 30.6868 72.3241L34.2068 72.3241" stroke="black" stroke-width="1.4"/>
  <path d="M53.48 72.3242L56.9999 72.3242C64.1796 72.3242 69.9999 66.5039 69.9999 59.3242V36.5153C69.9999 29.3356 64.1796 23.5153 56.9999 23.5153H53.48" stroke="black" stroke-width="1.4"/>
  <path d="M39.5046 23.5848H48.5433" stroke="black" stroke-width="1.4"/>
  <path d="M39.5046 72.2548H48.5433" stroke="black" stroke-width="1.4"/>
  <path d="M17.5198 11.0002L13.9998 11.0002C6.82012 11.0002 0.99983 16.8205 0.999829 24.0002L0.999827 46.8092C0.999827 53.9889 6.82012 59.8092 13.9998 59.8092L17.5198 59.8092" stroke="black" stroke-width="1.4"/>
  <path d="M36.7932 59.8091L40.3132 59.8091C47.4929 59.8091 53.3132 53.9888 53.3132 46.8091V24.0001C53.3132 16.8204 47.4929 11.0001 40.3132 11.0001H36.7932" stroke="black" stroke-width="1.4"/>
  <path d="M22.8181 11.0697H31.8568" stroke="black" stroke-width="1.4"/>
  <path d="M22.8181 59.7397H31.8568" stroke="black" stroke-width="1.4"/>
</svg>